<svg xmlns="http://www.w3.org/2000/svg" width="94" height="77.676" viewBox="0 0 94 77.676">
  <g id="dianwangdianbiao" transform="translate(-210.773 -170)">
    <g id="组_12" data-name="组 12" transform="translate(0 60)">
      <g id="组_7" data-name="组 7">
        <path id="路径_22" data-name="路径 22" d="M385.872,324.851l-46.794,21.995v17.092l47.035,22.2,46.965-22.278V347.1Z" transform="translate(-128.305 -198.462)" fill="#717171"/>
        <g id="组_6" data-name="组 6" transform="translate(211.992 127.99)">
          <g id="组_3" data-name="组 3" transform="translate(45.83 21.481)">
            <path id="路径_19" data-name="路径 19" d="M1240.928,277.116l-.056,15.041-45.526,21.437.056-15.041Z" transform="translate(-1195.346 -277.116)" fill="#dadbdb"/>
          </g>
          <g id="组_4" data-name="组 4" transform="translate(0 21.443)">
            <path id="路径_20" data-name="路径 20" d="M1144.063,298.511l-.056,15.041-45.82-21.475.056-15.041Z" transform="translate(-1098.187 -277.036)" fill="#ededed"/>
          </g>
          <g id="组_5" data-name="组 5" transform="translate(0.056 0)">
            <path id="路径_21" data-name="路径 21" d="M1189.662,253.055l-45.531,21.437-45.825-21.475,45.531-21.437Z" transform="translate(-1098.306 -231.58)" fill="#fefefe"/>
          </g>
        </g>
      </g>
      <g id="组_8" data-name="组 8" transform="translate(0 1)">
        <rect id="矩形_1" data-name="矩形 1" width="42" height="36" transform="translate(237 113)" fill="#ecfafb"/>
        <path id="路径_23" data-name="路径 23" d="M3,0H45a3,3,0,0,1,3,3V39a3,3,0,0,1-3,3H42l-2.172,4.341A3,3,0,0,1,37.146,48H10.854a3,3,0,0,1-2.682-1.659L6,42H3a3,3,0,0,1-3-3V3A3,3,0,0,1,3,0ZM9,6A3,3,0,0,0,6,9V27a3,3,0,0,0,3,3H39a3,3,0,0,0,3-3V9a3,3,0,0,0-3-3Zm1.5,30A1.5,1.5,0,1,0,12,37.5,1.5,1.5,0,0,0,10.5,36Zm6,0a1.5,1.5,0,1,0,0,3h15a1.5,1.5,0,1,0,0-3Zm21,0A1.5,1.5,0,1,0,39,37.5,1.5,1.5,0,0,0,37.5,36Zm-24-24A1.5,1.5,0,1,1,12,13.5,1.5,1.5,0,0,1,13.5,12Zm6,0h9a1.5,1.5,0,0,1,0,3h-9a1.5,1.5,0,0,1,0-3Zm-6,9h21a1.5,1.5,0,0,1,0,3h-21a1.5,1.5,0,0,1,0-3Zm21-9A1.5,1.5,0,1,1,33,13.5,1.5,1.5,0,0,1,34.5,12Z" transform="translate(234 109)" fill="#31969a"/>
      </g>
    </g>
    <g id="组_15" data-name="组 15" transform="translate(-54 -4)">
      <g id="椭圆_6" data-name="椭圆 6" transform="translate(322 205)" fill="#fff" stroke="#f24949" stroke-width="1">
        <circle cx="8" cy="8" r="8" stroke="none"/>
        <circle cx="8" cy="8" r="7.5" fill="none"/>
      </g>
      <g id="u53500" transform="translate(-198.143 -144.057)">
        <path id="路径_60" data-name="路径 60" d="M2.714,1.745,1.619,1.3,2.394.057H7.606L8.387,1.3l-1.1.435-.443-.7H3.158l-.444.71ZM9.076,2.993H6.29L5.8,1.525H4.2L3.718,2.993H.931L.143,4.241l1.1.436.449-.7h6.62l.443.71,1.1-.436L9.076,2.993Zm-2.3,1.468L8.553,9.844H7.28L7.132,9.4,5,6.859,2.868,9.4l-.141.44H1.454L3.231,4.462H4.5l-.221.66L5,5.978l.714-.856L5.5,4.461ZM3.354,7.951l1.28-1.532L4.08,5.758ZM5.372,6.419l1.28,1.527L5.926,5.754Z" transform="translate(523 352)" fill="#ff7d00"/>
      </g>
    </g>
  </g>
</svg>
