<svg xmlns="http://www.w3.org/2000/svg" width="94" height="77.676" viewBox="0 0 94 77.676">
  <g id="dianwangdiantan" transform="translate(-353 -170)">
    <g id="组_13" data-name="组 13" transform="translate(0 60)">
      <g id="组_10" data-name="组 10" transform="translate(142.227)">
        <path id="路径_22" data-name="路径 22" d="M385.872,324.851l-46.794,21.995v17.092l47.035,22.2,46.965-22.278V347.1Z" transform="translate(-128.305 -198.462)" fill="#717171"/>
        <g id="组_6" data-name="组 6" transform="translate(211.992 127.99)">
          <g id="组_3" data-name="组 3" transform="translate(45.83 21.481)">
            <path id="路径_19" data-name="路径 19" d="M1240.928,277.116l-.056,15.041-45.526,21.437.056-15.041Z" transform="translate(-1195.346 -277.116)" fill="#dadbdb"/>
          </g>
          <g id="组_4" data-name="组 4" transform="translate(0 21.443)">
            <path id="路径_20" data-name="路径 20" d="M1144.063,298.511l-.056,15.041-45.82-21.475.056-15.041Z" transform="translate(-1098.187 -277.036)" fill="#ededed"/>
          </g>
          <g id="组_5" data-name="组 5" transform="translate(0.056 0)">
            <path id="路径_21" data-name="路径 21" d="M1189.662,253.055l-45.531,21.437-45.825-21.475,45.531-21.437Z" transform="translate(-1098.306 -231.58)" fill="#fefefe"/>
          </g>
        </g>
      </g>
      <g id="组_11" data-name="组 11" transform="translate(-78.773 -122.001)">
        <path id="联合_4" data-name="联合 4" d="M-111-160v-11h-15v-36h45v36H-95v11Z" transform="translate(582 440)" fill="#f4f9ff"/>
        <path id="zaiyun" d="M-97.895-163.876l9.679-11.065h-4.839l2.554-5.128h-4.839l-3.63,8.771h5.108l-4.033,7.421h-12.142a2.7,2.7,0,0,1-2.688-2.7v-6.746h-2.689a2.7,2.7,0,0,1-2.688-2.7v-33.156a2.7,2.7,0,0,1,2.688-2.7h42.623a2.7,2.7,0,0,1,2.688,2.7v33.156a2.7,2.7,0,0,1-2.688,2.7H-75.48v6.746a2.7,2.7,0,0,1-2.688,2.7Zm22.415-13.494a1.272,1.272,0,0,0,1.345,1.349,1.272,1.272,0,0,0,1.345-1.349,1.272,1.272,0,0,0-1.345-1.349A1.272,1.272,0,0,0-75.48-177.369Zm-39.934,0a1.272,1.272,0,0,0,1.345,1.349,1.272,1.272,0,0,0,1.345-1.349,1.272,1.272,0,0,0-1.345-1.349A1.272,1.272,0,0,0-115.414-177.369Zm2.689-25.06v15.614a2.7,2.7,0,0,0,2.688,2.7h31.868a2.7,2.7,0,0,0,2.688-2.7v-15.614a2.7,2.7,0,0,0-2.688-2.7h-31.868A2.7,2.7,0,0,0-112.725-202.429Zm37.245-5.4a1.273,1.273,0,0,0,1.345,1.349,1.273,1.273,0,0,0,1.345-1.349,1.273,1.273,0,0,0-1.345-1.35A1.273,1.273,0,0,0-75.48-207.826Zm-39.934,0a1.273,1.273,0,0,0,1.345,1.349,1.273,1.273,0,0,0,1.345-1.349,1.273,1.273,0,0,0-1.345-1.35A1.273,1.273,0,0,0-115.414-207.826Zm28.058,16.192v-4.048h5.4v4.048Zm-18.891,0v-4.048h16.192v4.048Z" transform="translate(572.876 443.875)" fill="#3491fa"/>
      </g>
    </g>
    <g id="组_21" data-name="组 21" transform="translate(89 -4)">
      <g id="椭圆_6" data-name="椭圆 6" transform="translate(322 205)" fill="#fff" stroke="#f24949" stroke-width="1">
        <circle cx="8" cy="8" r="8" stroke="none"/>
        <circle cx="8" cy="8" r="7.5" fill="none"/>
      </g>
      <g id="u53500" transform="translate(-198.143 -144.057)">
        <path id="路径_60" data-name="路径 60" d="M2.714,1.745,1.619,1.3,2.394.057H7.606L8.387,1.3l-1.1.435-.443-.7H3.158l-.444.71ZM9.076,2.993H6.29L5.8,1.525H4.2L3.718,2.993H.931L.143,4.241l1.1.436.449-.7h6.62l.443.71,1.1-.436L9.076,2.993Zm-2.3,1.468L8.553,9.844H7.28L7.132,9.4,5,6.859,2.868,9.4l-.141.44H1.454L3.231,4.462H4.5l-.221.66L5,5.978l.714-.856L5.5,4.461ZM3.354,7.951l1.28-1.532L4.08,5.758ZM5.372,6.419l1.28,1.527L5.926,5.754Z" transform="translate(523 352)" fill="#ff7d00"/>
      </g>
    </g>
  </g>
</svg>
