<svg xmlns="http://www.w3.org/2000/svg" width="94" height="77.676" viewBox="0 0 94 77.676">
  <g id="fadiandianbiao" transform="translate(-210.773 -110)">
    <g id="组_12" data-name="组 12">
      <g id="组_7" data-name="组 7">
        <path id="路径_22" data-name="路径 22" d="M385.872,324.851l-46.794,21.995v17.092l47.035,22.2,46.965-22.278V347.1Z" transform="translate(-128.305 -198.462)" fill="#717171"/>
        <g id="组_6" data-name="组 6" transform="translate(211.992 127.99)">
          <g id="组_3" data-name="组 3" transform="translate(45.83 21.481)">
            <path id="路径_19" data-name="路径 19" d="M1240.928,277.116l-.056,15.041-45.526,21.437.056-15.041Z" transform="translate(-1195.346 -277.116)" fill="#dadbdb"/>
          </g>
          <g id="组_4" data-name="组 4" transform="translate(0 21.443)">
            <path id="路径_20" data-name="路径 20" d="M1144.063,298.511l-.056,15.041-45.82-21.475.056-15.041Z" transform="translate(-1098.187 -277.036)" fill="#ededed"/>
          </g>
          <g id="组_5" data-name="组 5" transform="translate(0.056 0)">
            <path id="路径_21" data-name="路径 21" d="M1189.662,253.055l-45.531,21.437-45.825-21.475,45.531-21.437Z" transform="translate(-1098.306 -231.58)" fill="#fefefe"/>
          </g>
        </g>
      </g>
      <g id="组_8" data-name="组 8" transform="translate(0 1)">
        <rect id="矩形_1" data-name="矩形 1" width="42" height="36" transform="translate(237 113)" fill="#ecfafb"/>
        <path id="路径_23" data-name="路径 23" d="M3,0H45a3,3,0,0,1,3,3V39a3,3,0,0,1-3,3H42l-2.172,4.341A3,3,0,0,1,37.146,48H10.854a3,3,0,0,1-2.682-1.659L6,42H3a3,3,0,0,1-3-3V3A3,3,0,0,1,3,0ZM9,6A3,3,0,0,0,6,9V27a3,3,0,0,0,3,3H39a3,3,0,0,0,3-3V9a3,3,0,0,0-3-3Zm1.5,30A1.5,1.5,0,1,0,12,37.5,1.5,1.5,0,0,0,10.5,36Zm6,0a1.5,1.5,0,1,0,0,3h15a1.5,1.5,0,1,0,0-3Zm21,0A1.5,1.5,0,1,0,39,37.5,1.5,1.5,0,0,0,37.5,36Zm-24-24A1.5,1.5,0,1,1,12,13.5,1.5,1.5,0,0,1,13.5,12Zm6,0h9a1.5,1.5,0,0,1,0,3h-9a1.5,1.5,0,0,1,0-3Zm-6,9h21a1.5,1.5,0,0,1,0,3h-21a1.5,1.5,0,0,1,0-3Zm21-9A1.5,1.5,0,1,1,33,13.5,1.5,1.5,0,0,1,34.5,12Z" transform="translate(234 109)" fill="#31969a"/>
      </g>
    </g>
    <g id="组_14" data-name="组 14" transform="translate(-26 -64)">
      <g id="椭圆_5" data-name="椭圆 5" transform="translate(294 205)" fill="#fff" stroke="#f24949" stroke-width="1">
        <circle cx="8" cy="8" r="8" stroke="none"/>
        <circle cx="8" cy="8" r="7.5" fill="none"/>
      </g>
      <g id="发电_u53452" transform="translate(-97.119 101.909)">
        <path id="路径_27" data-name="路径 27" d="M9.553,9.9H.444a.342.342,0,0,1,0-.683H1.967l.816-6.151H2.477a.342.342,0,1,1,0-.684H7.523a.342.342,0,1,1,0,.684h-.31l.816,6.151h1.54a.342.342,0,0,1,0,.684ZM2.868,7.62H7.131l-.09-.683H2.959Zm.3-2.278H6.827l-.091-.683H3.264ZM4.762,1.6H4.755a.342.342,0,0,1,0-.483L4.944.925A1.245,1.245,0,0,1,5.833.558h.157a.567.567,0,0,0,.4-.163L6.58.2a.342.342,0,1,1,.483.483L6.878.874a1.245,1.245,0,0,1-.886.367H5.833a.567.567,0,0,0-.4.163L5.245,1.6A.342.342,0,0,1,4.762,1.6Z" transform="translate(394 106)" fill="#00b42a"/>
      </g>
    </g>
  </g>
</svg>
