<svg xmlns="http://www.w3.org/2000/svg" width="94" height="77.676" viewBox="0 0 94 77.676">
  <g id="fadiandiantan" transform="translate(-353 -110)">
    <g id="组_13" data-name="组 13">
      <g id="组_10" data-name="组 10" transform="translate(142.227)">
        <path id="路径_22" data-name="路径 22" d="M385.872,324.851l-46.794,21.995v17.092l47.035,22.2,46.965-22.278V347.1Z" transform="translate(-128.305 -198.462)" fill="#717171"/>
        <g id="组_6" data-name="组 6" transform="translate(211.992 127.99)">
          <g id="组_3" data-name="组 3" transform="translate(45.83 21.481)">
            <path id="路径_19" data-name="路径 19" d="M1240.928,277.116l-.056,15.041-45.526,21.437.056-15.041Z" transform="translate(-1195.346 -277.116)" fill="#dadbdb"/>
          </g>
          <g id="组_4" data-name="组 4" transform="translate(0 21.443)">
            <path id="路径_20" data-name="路径 20" d="M1144.063,298.511l-.056,15.041-45.82-21.475.056-15.041Z" transform="translate(-1098.187 -277.036)" fill="#ededed"/>
          </g>
          <g id="组_5" data-name="组 5" transform="translate(0.056 0)">
            <path id="路径_21" data-name="路径 21" d="M1189.662,253.055l-45.531,21.437-45.825-21.475,45.531-21.437Z" transform="translate(-1098.306 -231.58)" fill="#fefefe"/>
          </g>
        </g>
      </g>
      <g id="组_11" data-name="组 11" transform="translate(-78.773 -122.001)">
        <path id="联合_4" data-name="联合 4" d="M-111-160v-11h-15v-36h45v36H-95v11Z" transform="translate(582 440)" fill="#f4f9ff"/>
        <path id="zaiyun" d="M-97.895-163.876l9.679-11.065h-4.839l2.554-5.128h-4.839l-3.63,8.771h5.108l-4.033,7.421h-12.142a2.7,2.7,0,0,1-2.688-2.7v-6.746h-2.689a2.7,2.7,0,0,1-2.688-2.7v-33.156a2.7,2.7,0,0,1,2.688-2.7h42.623a2.7,2.7,0,0,1,2.688,2.7v33.156a2.7,2.7,0,0,1-2.688,2.7H-75.48v6.746a2.7,2.7,0,0,1-2.688,2.7Zm22.415-13.494a1.272,1.272,0,0,0,1.345,1.349,1.272,1.272,0,0,0,1.345-1.349,1.272,1.272,0,0,0-1.345-1.349A1.272,1.272,0,0,0-75.48-177.369Zm-39.934,0a1.272,1.272,0,0,0,1.345,1.349,1.272,1.272,0,0,0,1.345-1.349,1.272,1.272,0,0,0-1.345-1.349A1.272,1.272,0,0,0-115.414-177.369Zm2.689-25.06v15.614a2.7,2.7,0,0,0,2.688,2.7h31.868a2.7,2.7,0,0,0,2.688-2.7v-15.614a2.7,2.7,0,0,0-2.688-2.7h-31.868A2.7,2.7,0,0,0-112.725-202.429Zm37.245-5.4a1.273,1.273,0,0,0,1.345,1.349,1.273,1.273,0,0,0,1.345-1.349,1.273,1.273,0,0,0-1.345-1.35A1.273,1.273,0,0,0-75.48-207.826Zm-39.934,0a1.273,1.273,0,0,0,1.345,1.349,1.273,1.273,0,0,0,1.345-1.349,1.273,1.273,0,0,0-1.345-1.35A1.273,1.273,0,0,0-115.414-207.826Zm28.058,16.192v-4.048h5.4v4.048Zm-18.891,0v-4.048h16.192v4.048Z" transform="translate(572.876 443.875)" fill="#3491fa"/>
      </g>
    </g>
    <g id="组_18" data-name="组 18" transform="translate(117 -64)">
      <g id="椭圆_5" data-name="椭圆 5" transform="translate(294 205)" fill="#fff" stroke="#f24949" stroke-width="1">
        <circle cx="8" cy="8" r="8" stroke="none"/>
        <circle cx="8" cy="8" r="7.5" fill="none"/>
      </g>
      <g id="发电_u53452" transform="translate(-97.119 101.909)">
        <path id="路径_27" data-name="路径 27" d="M9.553,9.9H.444a.342.342,0,0,1,0-.683H1.967l.816-6.151H2.477a.342.342,0,1,1,0-.684H7.523a.342.342,0,1,1,0,.684h-.31l.816,6.151h1.54a.342.342,0,0,1,0,.684ZM2.868,7.62H7.131l-.09-.683H2.959Zm.3-2.278H6.827l-.091-.683H3.264ZM4.762,1.6H4.755a.342.342,0,0,1,0-.483L4.944.925A1.245,1.245,0,0,1,5.833.558h.157a.567.567,0,0,0,.4-.163L6.58.2a.342.342,0,1,1,.483.483L6.878.874a1.245,1.245,0,0,1-.886.367H5.833a.567.567,0,0,0-.4.163L5.245,1.6A.342.342,0,0,1,4.762,1.6Z" transform="translate(394 106)" fill="#00b42a"/>
      </g>
    </g>
  </g>
</svg>
