<svg xmlns="http://www.w3.org/2000/svg" width="94" height="77.676" viewBox="0 0 94 77.676">
  <g id="taiqudianbiao" transform="translate(-353 -268.13)">
    <g id="组_13" data-name="组 13" transform="translate(0 158.13)">
      <g id="组_10" data-name="组 10" transform="translate(142.227)">
        <path id="路径_22" data-name="路径 22" d="M385.872,324.851l-46.794,21.995v17.092l47.035,22.2,46.965-22.278V347.1Z" transform="translate(-128.305 -198.462)" fill="#717171"/>
        <g id="组_6" data-name="组 6" transform="translate(211.992 127.99)">
          <g id="组_3" data-name="组 3" transform="translate(45.83 21.481)">
            <path id="路径_19" data-name="路径 19" d="M1240.928,277.116l-.056,15.041-45.526,21.437.056-15.041Z" transform="translate(-1195.346 -277.116)" fill="#dadbdb"/>
          </g>
          <g id="组_4" data-name="组 4" transform="translate(0 21.443)">
            <path id="路径_20" data-name="路径 20" d="M1144.063,298.511l-.056,15.041-45.82-21.475.056-15.041Z" transform="translate(-1098.187 -277.036)" fill="#ededed"/>
          </g>
          <g id="组_5" data-name="组 5" transform="translate(0.056 0)">
            <path id="路径_21" data-name="路径 21" d="M1189.662,253.055l-45.531,21.437-45.825-21.475,45.531-21.437Z" transform="translate(-1098.306 -231.58)" fill="#fefefe"/>
          </g>
        </g>
      </g>
      <g id="组_11" data-name="组 11" transform="translate(-78.773 -122.001)">
        <path id="联合_4" data-name="联合 4" d="M-111-160v-11h-15v-36h45v36H-95v11Z" transform="translate(582 440)" fill="#f4f9ff"/>
        <path id="zaiyun" d="M-97.895-163.876l9.679-11.065h-4.839l2.554-5.128h-4.839l-3.63,8.771h5.108l-4.033,7.421h-12.142a2.7,2.7,0,0,1-2.688-2.7v-6.746h-2.689a2.7,2.7,0,0,1-2.688-2.7v-33.156a2.7,2.7,0,0,1,2.688-2.7h42.623a2.7,2.7,0,0,1,2.688,2.7v33.156a2.7,2.7,0,0,1-2.688,2.7H-75.48v6.746a2.7,2.7,0,0,1-2.688,2.7Zm22.415-13.494a1.272,1.272,0,0,0,1.345,1.349,1.272,1.272,0,0,0,1.345-1.349,1.272,1.272,0,0,0-1.345-1.349A1.272,1.272,0,0,0-75.48-177.369Zm-39.934,0a1.272,1.272,0,0,0,1.345,1.349,1.272,1.272,0,0,0,1.345-1.349,1.272,1.272,0,0,0-1.345-1.349A1.272,1.272,0,0,0-115.414-177.369Zm2.689-25.06v15.614a2.7,2.7,0,0,0,2.688,2.7h31.868a2.7,2.7,0,0,0,2.688-2.7v-15.614a2.7,2.7,0,0,0-2.688-2.7h-31.868A2.7,2.7,0,0,0-112.725-202.429Zm37.245-5.4a1.273,1.273,0,0,0,1.345,1.349,1.273,1.273,0,0,0,1.345-1.349,1.273,1.273,0,0,0-1.345-1.35A1.273,1.273,0,0,0-75.48-207.826Zm-39.934,0a1.273,1.273,0,0,0,1.345,1.349,1.273,1.273,0,0,0,1.345-1.349,1.273,1.273,0,0,0-1.345-1.35A1.273,1.273,0,0,0-115.414-207.826Zm28.058,16.192v-4.048h5.4v4.048Zm-18.891,0v-4.048h16.192v4.048Z" transform="translate(572.876 443.875)" fill="#3491fa"/>
      </g>
    </g>
    <g id="组_25" data-name="组 25" transform="translate(62 94)">
      <g id="椭圆_7" data-name="椭圆 7" transform="translate(349 205)" fill="#fff" stroke="#f24949" stroke-width="1">
        <circle cx="8" cy="8" r="8" stroke="none"/>
        <circle cx="8" cy="8" r="7.5" fill="none"/>
      </g>
      <g id="u53628" transform="translate(92.89 -388)">
        <path id="路径_64" data-name="路径 64" d="M8.32,8.168l.066.089h.022v.03l.713.964c.3.41.134.746-.385.746H1.547c-.5,0-.667-.322-.37-.731l.47-.6a.737.737,0,0,1-.054-.277V8.257h.374l.07-.089H8.321ZM.866,3.431H9.134a.751.751,0,0,1,.756.746V7.365a.741.741,0,0,1-.221.527.761.761,0,0,1-.535.219H.866a.761.761,0,0,1-.534-.219A.741.741,0,0,1,.11,7.365V4.177A.751.751,0,0,1,.866,3.431Zm2.282.729A.147.147,0,0,0,3,4.016a.149.149,0,0,0-.1.043.145.145,0,0,0-.043.1V7.38a.148.148,0,0,0,.3,0V4.162S3.148,4.161,3.148,4.16Zm6,0A.147.147,0,0,0,9,4.016a.149.149,0,0,0-.1.043.145.145,0,0,0-.044.1V7.38a.148.148,0,0,0,.3,0V4.16ZM5,4.016a.147.147,0,0,0-.148.146v.454a.832.832,0,0,0-.533.356l-.171.272V4.162a.148.148,0,0,0-.3,0V5.718l-.074.118a.756.756,0,0,0-.111.408.779.779,0,0,0,.185.509v.627a.148.148,0,0,0,.3,0V6.968a.818.818,0,0,0,.314.062h.39V7.38a.148.148,0,0,0,.3,0V7.029h.4a.857.857,0,0,0,.308-.063v.414a.148.148,0,0,0,.3,0V6.751a.77.77,0,0,0,.064-.915l-.064-.1V4.16a.148.148,0,0,0-.3,0v1.1l-.181-.289a.776.776,0,0,0-.254-.251.75.75,0,0,0-.268-.107V4.162A.147.147,0,0,0,5,4.015Zm-3.9.043A.149.149,0,0,0,1,4.016a.147.147,0,0,0-.148.144V7.38a.148.148,0,0,0,.3,0V4.162A.145.145,0,0,0,1.1,4.059Zm1.043.1a.148.148,0,0,0-.3,0s0,0,0,0V7.38a.148.148,0,0,0,.3,0V4.16ZM8,4.016a.147.147,0,0,0-.148.146V7.38a.148.148,0,0,0,.3,0V4.16A.147.147,0,0,0,8,4.016Zm-1,0a.147.147,0,0,0-.148.144V7.38a.148.148,0,0,0,.3,0V4.16A.147.147,0,0,0,7,4.016Zm-2.535,1.2a.628.628,0,0,1,.854-.2.6.6,0,0,1,.2.2l.421.672a.608.608,0,0,1-.2.843.75.75,0,0,1-.322.086H4.577a.609.609,0,0,1-.619-.611.584.584,0,0,1,.087-.318Zm.883.25-.591.488c-.01,0-.01.01-.01.019s0,.02.01.02l.136.057-.281.469v.019a.01.01,0,0,0,.01.01h.019l.591-.478c.01,0,.01-.01.01-.019s0-.019-.01-.019l-.146-.057.281-.487v-.02a.014.014,0,0,0-.02,0Zm-3-3.059h5.3a.751.751,0,0,1,.756.746v.131H1.592V3.153a.74.74,0,0,1,.222-.527A.761.761,0,0,1,2.348,2.407Zm5.327-.731v.593H5.9v-.5a1.191,1.191,0,0,0,1.778-.092Zm-4.6-.585V2.262H2.481V1.092h.593Zm.889,0V2.262H3.37V1.092h.593Zm.889,0V2.262H4.259V1.092h.593Zm.857-.067a1.037,1.037,0,0,1,2.074,0,1.037,1.037,0,0,1-2.074,0Zm1.778,0a.741.741,0,0,0-1.482,0,.741.741,0,0,0,1.482,0Zm-1.416,0a.667.667,0,1,1,.667.658A.663.663,0,0,1,6.071,1.026Zm.843.012A.179.179,0,0,0,6.738.864a.169.169,0,0,0-.175.162.179.179,0,0,0,.175.173A.169.169,0,0,0,6.914,1.037ZM2.629.652a.148.148,0,0,1,.3,0V.991h-.3Zm.889,0a.148.148,0,0,1,.3,0V.991h-.3Zm.889,0a.148.148,0,0,1,.3,0V.991h-.3Z" transform="translate(259 596)" fill="#00a079"/>
      </g>
    </g>
  </g>
</svg>
