<svg xmlns="http://www.w3.org/2000/svg" width="94" height="77.676" viewBox="0 0 94 77.676">
  <g id="yonghudiantan" transform="translate(-497.409 -263.13)">
    <g id="组_10" data-name="组 10" transform="translate(286.636 153.13)">
      <path id="路径_22" data-name="路径 22" d="M385.872,324.851l-46.794,21.995v17.092l47.035,22.2,46.965-22.278V347.1Z" transform="translate(-128.305 -198.462)" fill="#717171"/>
      <g id="组_6" data-name="组 6" transform="translate(211.992 127.99)">
        <g id="组_3" data-name="组 3" transform="translate(45.83 21.481)">
          <path id="路径_19" data-name="路径 19" d="M1240.928,277.116l-.056,15.041-45.526,21.437.056-15.041Z" transform="translate(-1195.346 -277.116)" fill="#dadbdb"/>
        </g>
        <g id="组_4" data-name="组 4" transform="translate(0 21.443)">
          <path id="路径_20" data-name="路径 20" d="M1144.063,298.511l-.056,15.041-45.82-21.475.056-15.041Z" transform="translate(-1098.187 -277.036)" fill="#ededed"/>
        </g>
        <g id="组_5" data-name="组 5" transform="translate(0.056 0)">
          <path id="路径_21" data-name="路径 21" d="M1189.662,253.055l-45.531,21.437-45.825-21.475,45.531-21.437Z" transform="translate(-1098.306 -231.58)" fill="#fefefe"/>
        </g>
      </g>
    </g>
    <g id="组_11" data-name="组 11" transform="translate(65.636 31.13)">
      <path id="联合_4" data-name="联合 4" d="M-111-160v-11h-15v-36h45v36H-95v11Z" transform="translate(582 440)" fill="#f4f9ff"/>
      <path id="zaiyun" d="M-97.895-163.876l9.679-11.065h-4.839l2.554-5.128h-4.839l-3.63,8.771h5.108l-4.033,7.421h-12.142a2.7,2.7,0,0,1-2.688-2.7v-6.746h-2.689a2.7,2.7,0,0,1-2.688-2.7v-33.156a2.7,2.7,0,0,1,2.688-2.7h42.623a2.7,2.7,0,0,1,2.688,2.7v33.156a2.7,2.7,0,0,1-2.688,2.7H-75.48v6.746a2.7,2.7,0,0,1-2.688,2.7Zm22.415-13.494a1.272,1.272,0,0,0,1.345,1.349,1.272,1.272,0,0,0,1.345-1.349,1.272,1.272,0,0,0-1.345-1.349A1.272,1.272,0,0,0-75.48-177.369Zm-39.934,0a1.272,1.272,0,0,0,1.345,1.349,1.272,1.272,0,0,0,1.345-1.349,1.272,1.272,0,0,0-1.345-1.349A1.272,1.272,0,0,0-115.414-177.369Zm2.689-25.06v15.614a2.7,2.7,0,0,0,2.688,2.7h31.868a2.7,2.7,0,0,0,2.688-2.7v-15.614a2.7,2.7,0,0,0-2.688-2.7h-31.868A2.7,2.7,0,0,0-112.725-202.429Zm37.245-5.4a1.273,1.273,0,0,0,1.345,1.349,1.273,1.273,0,0,0,1.345-1.349,1.273,1.273,0,0,0-1.345-1.35A1.273,1.273,0,0,0-75.48-207.826Zm-39.934,0a1.273,1.273,0,0,0,1.345,1.349,1.273,1.273,0,0,0,1.345-1.349,1.273,1.273,0,0,0-1.345-1.35A1.273,1.273,0,0,0-115.414-207.826Zm28.058,16.192v-4.048h5.4v4.048Zm-18.891,0v-4.048h16.192v4.048Z" transform="translate(572.876 443.875)" fill="#3491fa"/>
    </g>
    <g id="组_17" data-name="组 17" transform="translate(179 89)">
      <g id="椭圆_8" data-name="椭圆 8" transform="translate(377 205)" fill="#fff" stroke="#f24949" stroke-width="1">
        <circle cx="8" cy="8" r="8" stroke="none"/>
        <circle cx="8" cy="8" r="7.5" fill="none"/>
      </g>
      <g id="u53660" transform="translate(-151.02 -388.052)">
        <path id="路径_65" data-name="路径 65" d="M9.98,5.114v2.6H9.412a2.351,2.351,0,0,0-.306-.606,2.889,2.889,0,0,0-1.852-.9,5.113,5.113,0,0,1-.714-.187,1.3,1.3,0,0,1-.186-.087,2.993,2.993,0,0,0,.521-.861,3.4,3.4,0,0,0,.251-1.273A4.774,4.774,0,0,0,6.8,1.786a1.894,1.894,0,0,0-.65-.768A1.16,1.16,0,0,1,7.393.059c1.167,0,1.346.985,1.346,2.173A2.3,2.3,0,0,1,8.08,3.856.2.2,0,0,0,8.019,4a.893.893,0,0,0,.057.414c.33.459,1.227.473,1.9.7ZM.871,7.124a2.781,2.781,0,0,1,1.884-.937A5.368,5.368,0,0,0,3.473,6a1.084,1.084,0,0,0,.181-.082,3.085,3.085,0,0,1-.517-.853A3.5,3.5,0,0,1,2.88,3.816a6.66,6.66,0,0,1,.1-1.338,2.344,2.344,0,0,1,.567-1.206,1.64,1.64,0,0,1,.309-.258A1.153,1.153,0,0,0,2.625.052c-1.2,0-1.372,1-1.36,2.193a2.324,2.324,0,0,0,.661,1.606A.2.2,0,0,1,1.987,4a.931.931,0,0,1-.059.408C1.606,4.865.7,4.875.02,5.095V7.708H.59a2.55,2.55,0,0,1,.281-.584ZM9.118,9.716a.217.217,0,0,1-.21.232H1.1a.216.216,0,0,1-.21-.232,5.425,5.425,0,0,1,.489-2.2C1.928,6.7,3.736,6.978,4.242,6.25a1.032,1.032,0,0,0,.067-.459.23.23,0,0,0-.069-.165,2.6,2.6,0,0,1-.734-1.8c-.013-1.343.175-2.458,1.509-2.458,1.294,0,1.49,1.1,1.49,2.439a2.6,2.6,0,0,1-.729,1.82.233.233,0,0,0-.07.16,1.067,1.067,0,0,0,.061.465c.513.727,2.266.467,2.847,1.261a5.087,5.087,0,0,1,.5,2.2Z" transform="translate(531 596)" fill="#f24949"/>
      </g>
    </g>
  </g>
</svg>
