<svg xmlns="http://www.w3.org/2000/svg" width="94" height="77.676" viewBox="0 0 94 77.676">
  <g id="yonghudianbiao" transform="translate(-355.182 -263.13)">
    <g id="组_7" data-name="组 7" transform="translate(144.409 153.13)">
      <path id="路径_22" data-name="路径 22" d="M385.872,324.851l-46.794,21.995v17.092l47.035,22.2,46.965-22.278V347.1Z" transform="translate(-128.305 -198.462)" fill="#717171"/>
      <g id="组_6" data-name="组 6" transform="translate(211.992 127.99)">
        <g id="组_3" data-name="组 3" transform="translate(45.83 21.481)">
          <path id="路径_19" data-name="路径 19" d="M1240.928,277.116l-.056,15.041-45.526,21.437.056-15.041Z" transform="translate(-1195.346 -277.116)" fill="#dadbdb"/>
        </g>
        <g id="组_4" data-name="组 4" transform="translate(0 21.443)">
          <path id="路径_20" data-name="路径 20" d="M1144.063,298.511l-.056,15.041-45.82-21.475.056-15.041Z" transform="translate(-1098.187 -277.036)" fill="#ededed"/>
        </g>
        <g id="组_5" data-name="组 5" transform="translate(0.056 0)">
          <path id="路径_21" data-name="路径 21" d="M1189.662,253.055l-45.531,21.437-45.825-21.475,45.531-21.437Z" transform="translate(-1098.306 -231.58)" fill="#fefefe"/>
        </g>
      </g>
    </g>
    <g id="组_8" data-name="组 8" transform="translate(144.409 154.13)">
      <rect id="矩形_1" data-name="矩形 1" width="42" height="36" transform="translate(237 113)" fill="#ecfafb"/>
      <path id="路径_23" data-name="路径 23" d="M3,0H45a3,3,0,0,1,3,3V39a3,3,0,0,1-3,3H42l-2.172,4.341A3,3,0,0,1,37.146,48H10.854a3,3,0,0,1-2.682-1.659L6,42H3a3,3,0,0,1-3-3V3A3,3,0,0,1,3,0ZM9,6A3,3,0,0,0,6,9V27a3,3,0,0,0,3,3H39a3,3,0,0,0,3-3V9a3,3,0,0,0-3-3Zm1.5,30A1.5,1.5,0,1,0,12,37.5,1.5,1.5,0,0,0,10.5,36Zm6,0a1.5,1.5,0,1,0,0,3h15a1.5,1.5,0,1,0,0-3Zm21,0A1.5,1.5,0,1,0,39,37.5,1.5,1.5,0,0,0,37.5,36Zm-24-24A1.5,1.5,0,1,1,12,13.5,1.5,1.5,0,0,1,13.5,12Zm6,0h9a1.5,1.5,0,0,1,0,3h-9a1.5,1.5,0,0,1,0-3Zm-6,9h21a1.5,1.5,0,0,1,0,3h-21a1.5,1.5,0,0,1,0-3Zm21-9A1.5,1.5,0,1,1,33,13.5,1.5,1.5,0,0,1,34.5,12Z" transform="translate(234 109)" fill="#31969a"/>
    </g>
    <g id="组_28" data-name="组 28" transform="translate(36 89)">
      <g id="椭圆_8" data-name="椭圆 8" transform="translate(377 205)" fill="#fff" stroke="#f24949" stroke-width="1">
        <circle cx="8" cy="8" r="8" stroke="none"/>
        <circle cx="8" cy="8" r="7.5" fill="none"/>
      </g>
      <g id="u53660" transform="translate(-151.02 -388.052)">
        <path id="路径_65" data-name="路径 65" d="M9.98,5.114v2.6H9.412a2.351,2.351,0,0,0-.306-.606,2.889,2.889,0,0,0-1.852-.9,5.113,5.113,0,0,1-.714-.187,1.3,1.3,0,0,1-.186-.087,2.993,2.993,0,0,0,.521-.861,3.4,3.4,0,0,0,.251-1.273A4.774,4.774,0,0,0,6.8,1.786a1.894,1.894,0,0,0-.65-.768A1.16,1.16,0,0,1,7.393.059c1.167,0,1.346.985,1.346,2.173A2.3,2.3,0,0,1,8.08,3.856.2.2,0,0,0,8.019,4a.893.893,0,0,0,.057.414c.33.459,1.227.473,1.9.7ZM.871,7.124a2.781,2.781,0,0,1,1.884-.937A5.368,5.368,0,0,0,3.473,6a1.084,1.084,0,0,0,.181-.082,3.085,3.085,0,0,1-.517-.853A3.5,3.5,0,0,1,2.88,3.816a6.66,6.66,0,0,1,.1-1.338,2.344,2.344,0,0,1,.567-1.206,1.64,1.64,0,0,1,.309-.258A1.153,1.153,0,0,0,2.625.052c-1.2,0-1.372,1-1.36,2.193a2.324,2.324,0,0,0,.661,1.606A.2.2,0,0,1,1.987,4a.931.931,0,0,1-.059.408C1.606,4.865.7,4.875.02,5.095V7.708H.59a2.55,2.55,0,0,1,.281-.584ZM9.118,9.716a.217.217,0,0,1-.21.232H1.1a.216.216,0,0,1-.21-.232,5.425,5.425,0,0,1,.489-2.2C1.928,6.7,3.736,6.978,4.242,6.25a1.032,1.032,0,0,0,.067-.459.23.23,0,0,0-.069-.165,2.6,2.6,0,0,1-.734-1.8c-.013-1.343.175-2.458,1.509-2.458,1.294,0,1.49,1.1,1.49,2.439a2.6,2.6,0,0,1-.729,1.82.233.233,0,0,0-.07.16,1.067,1.067,0,0,0,.061.465c.513.727,2.266.467,2.847,1.261a5.087,5.087,0,0,1,.5,2.2Z" transform="translate(531 596)" fill="#f24949"/>
      </g>
    </g>
  </g>
</svg>
